<mxfile host="app.diagrams.net" modified="2020-03-26T21:32:52.067Z" agent="Mozilla/5.0 (Windows NT 10.0; Win64; x64) AppleWebKit/537.36 (KHTML, like Gecko) Chrome/80.0.3987.149 Safari/537.36" etag="N3wkAYWGFayp20PTRIV4" version="12.9.3" type="github">
  <diagram id="vgMpB3oz3y_oeOcNTijl" name="Page-1">
    <mxGraphModel dx="1501" dy="783" grid="1" gridSize="10" guides="1" tooltips="1" connect="1" arrows="1" fold="1" page="1" pageScale="1" pageWidth="2420" pageHeight="800" math="0" shadow="0">
      <root>
        <mxCell id="0" />
        <mxCell id="1" parent="0" />
        <mxCell id="CEYnPQlG16EadwTZ8Rgl-3" style="edgeStyle=orthogonalEdgeStyle;rounded=0;orthogonalLoop=1;jettySize=auto;html=1;endArrow=none;endFill=0;" edge="1" parent="1" source="CEYnPQlG16EadwTZ8Rgl-1">
          <mxGeometry relative="1" as="geometry">
            <mxPoint x="1230" y="200" as="targetPoint" />
          </mxGeometry>
        </mxCell>
        <mxCell id="CEYnPQlG16EadwTZ8Rgl-1" value="Reservar habitación de hotel" style="rounded=0;whiteSpace=wrap;html=1;direction=west;" vertex="1" parent="1">
          <mxGeometry x="1170" y="100" width="120" height="60" as="geometry" />
        </mxCell>
        <mxCell id="CEYnPQlG16EadwTZ8Rgl-6" value="" style="endArrow=none;html=1;" edge="1" parent="1">
          <mxGeometry width="50" height="50" relative="1" as="geometry">
            <mxPoint x="550" y="200" as="sourcePoint" />
            <mxPoint x="2350" y="200" as="targetPoint" />
          </mxGeometry>
        </mxCell>
        <mxCell id="CEYnPQlG16EadwTZ8Rgl-7" value="0" style="text;html=1;strokeColor=none;fillColor=none;align=center;verticalAlign=middle;whiteSpace=wrap;rounded=0;direction=west;" vertex="1" parent="1">
          <mxGeometry x="1260" y="140" width="40" height="20" as="geometry" />
        </mxCell>
        <mxCell id="CEYnPQlG16EadwTZ8Rgl-11" style="edgeStyle=none;orthogonalLoop=1;jettySize=auto;html=1;endArrow=none;" edge="1" parent="1" source="CEYnPQlG16EadwTZ8Rgl-8">
          <mxGeometry relative="1" as="geometry">
            <mxPoint x="610" y="323" as="targetPoint" />
          </mxGeometry>
        </mxCell>
        <mxCell id="CEYnPQlG16EadwTZ8Rgl-8" value="Acceder a la web" style="rounded=0;whiteSpace=wrap;html=1;direction=west;" vertex="1" parent="1">
          <mxGeometry x="550" y="213" width="120" height="60" as="geometry" />
        </mxCell>
        <mxCell id="CEYnPQlG16EadwTZ8Rgl-9" value="1" style="text;html=1;strokeColor=none;fillColor=none;align=center;verticalAlign=middle;whiteSpace=wrap;rounded=0;direction=west;" vertex="1" parent="1">
          <mxGeometry x="640" y="253" width="40" height="20" as="geometry" />
        </mxCell>
        <mxCell id="CEYnPQlG16EadwTZ8Rgl-12" value="Acceder desde el ordenador" style="rounded=0;whiteSpace=wrap;html=1;direction=west;" vertex="1" parent="1">
          <mxGeometry x="280" y="333" width="120" height="60" as="geometry" />
        </mxCell>
        <mxCell id="CEYnPQlG16EadwTZ8Rgl-13" value="Acceder desde el móvil" style="rounded=0;whiteSpace=wrap;html=1;direction=west;" vertex="1" parent="1">
          <mxGeometry x="780" y="332" width="120" height="60" as="geometry" />
        </mxCell>
        <mxCell id="CEYnPQlG16EadwTZ8Rgl-14" value="" style="endArrow=none;html=1;" edge="1" parent="1">
          <mxGeometry width="50" height="50" relative="1" as="geometry">
            <mxPoint x="280" y="323" as="sourcePoint" />
            <mxPoint x="900" y="323" as="targetPoint" />
          </mxGeometry>
        </mxCell>
        <mxCell id="CEYnPQlG16EadwTZ8Rgl-17" value="Ir hasta el ordenador" style="rounded=0;whiteSpace=wrap;html=1;direction=west;" vertex="1" parent="1">
          <mxGeometry x="90" y="455" width="120" height="60" as="geometry" />
        </mxCell>
        <mxCell id="CEYnPQlG16EadwTZ8Rgl-18" value="" style="endArrow=none;html=1;" edge="1" parent="1">
          <mxGeometry width="50" height="50" relative="1" as="geometry">
            <mxPoint x="90" y="445" as="sourcePoint" />
            <mxPoint x="610" y="445" as="targetPoint" />
          </mxGeometry>
        </mxCell>
        <mxCell id="CEYnPQlG16EadwTZ8Rgl-19" value="Encender el ordenador" style="rounded=0;whiteSpace=wrap;html=1;direction=west;" vertex="1" parent="1">
          <mxGeometry x="220" y="455" width="120" height="60" as="geometry" />
        </mxCell>
        <mxCell id="CEYnPQlG16EadwTZ8Rgl-20" value="Abrir el navegador" style="rounded=0;whiteSpace=wrap;html=1;direction=west;" vertex="1" parent="1">
          <mxGeometry x="353.5" y="455" width="120" height="60" as="geometry" />
        </mxCell>
        <mxCell id="CEYnPQlG16EadwTZ8Rgl-21" value="Entrar en la página" style="rounded=0;whiteSpace=wrap;html=1;direction=west;" vertex="1" parent="1">
          <mxGeometry x="490" y="455" width="120" height="60" as="geometry" />
        </mxCell>
        <mxCell id="CEYnPQlG16EadwTZ8Rgl-26" value="" style="endArrow=none;html=1;" edge="1" parent="1">
          <mxGeometry width="50" height="50" relative="1" as="geometry">
            <mxPoint x="430" y="545" as="sourcePoint" />
            <mxPoint x="680" y="545" as="targetPoint" />
          </mxGeometry>
        </mxCell>
        <mxCell id="CEYnPQlG16EadwTZ8Rgl-27" value="Buscar página" style="rounded=0;whiteSpace=wrap;html=1;direction=west;" vertex="1" parent="1">
          <mxGeometry x="433.5" y="555" width="120" height="60" as="geometry" />
        </mxCell>
        <mxCell id="CEYnPQlG16EadwTZ8Rgl-28" value="Acceder a la página" style="rounded=0;whiteSpace=wrap;html=1;direction=west;" vertex="1" parent="1">
          <mxGeometry x="563.5" y="555" width="120" height="60" as="geometry" />
        </mxCell>
        <mxCell id="CEYnPQlG16EadwTZ8Rgl-35" value="" style="endArrow=none;html=1;" edge="1" parent="1">
          <mxGeometry width="50" height="50" relative="1" as="geometry">
            <mxPoint x="90" y="525" as="sourcePoint" />
            <mxPoint x="210" y="525" as="targetPoint" />
          </mxGeometry>
        </mxCell>
        <mxCell id="CEYnPQlG16EadwTZ8Rgl-36" value="" style="endArrow=none;html=1;" edge="1" parent="1">
          <mxGeometry width="50" height="50" relative="1" as="geometry">
            <mxPoint x="220" y="525" as="sourcePoint" />
            <mxPoint x="340" y="525" as="targetPoint" />
          </mxGeometry>
        </mxCell>
        <mxCell id="CEYnPQlG16EadwTZ8Rgl-37" value="" style="endArrow=none;html=1;" edge="1" parent="1">
          <mxGeometry width="50" height="50" relative="1" as="geometry">
            <mxPoint x="353.5" y="525" as="sourcePoint" />
            <mxPoint x="473.5" y="525" as="targetPoint" />
          </mxGeometry>
        </mxCell>
        <mxCell id="CEYnPQlG16EadwTZ8Rgl-38" value="" style="endArrow=none;html=1;" edge="1" parent="1">
          <mxGeometry width="50" height="50" relative="1" as="geometry">
            <mxPoint x="433.5" y="625" as="sourcePoint" />
            <mxPoint x="553.5" y="625" as="targetPoint" />
          </mxGeometry>
        </mxCell>
        <mxCell id="CEYnPQlG16EadwTZ8Rgl-41" value="Encender el móvil" style="rounded=0;whiteSpace=wrap;html=1;direction=west;" vertex="1" parent="1">
          <mxGeometry x="650" y="455" width="120" height="60" as="geometry" />
        </mxCell>
        <mxCell id="CEYnPQlG16EadwTZ8Rgl-42" value="Abrir el navegador" style="rounded=0;whiteSpace=wrap;html=1;direction=west;" vertex="1" parent="1">
          <mxGeometry x="783.5" y="455" width="120" height="60" as="geometry" />
        </mxCell>
        <mxCell id="CEYnPQlG16EadwTZ8Rgl-43" value="Entrar en la página" style="rounded=0;whiteSpace=wrap;html=1;direction=west;" vertex="1" parent="1">
          <mxGeometry x="920" y="455" width="120" height="60" as="geometry" />
        </mxCell>
        <mxCell id="CEYnPQlG16EadwTZ8Rgl-45" value="" style="endArrow=none;html=1;" edge="1" parent="1">
          <mxGeometry width="50" height="50" relative="1" as="geometry">
            <mxPoint x="860" y="545" as="sourcePoint" />
            <mxPoint x="1110" y="545" as="targetPoint" />
          </mxGeometry>
        </mxCell>
        <mxCell id="CEYnPQlG16EadwTZ8Rgl-54" value="" style="endArrow=none;html=1;" edge="1" parent="1">
          <mxGeometry width="50" height="50" relative="1" as="geometry">
            <mxPoint x="650" y="525" as="sourcePoint" />
            <mxPoint x="770" y="525" as="targetPoint" />
          </mxGeometry>
        </mxCell>
        <mxCell id="CEYnPQlG16EadwTZ8Rgl-55" value="" style="endArrow=none;html=1;" edge="1" parent="1">
          <mxGeometry width="50" height="50" relative="1" as="geometry">
            <mxPoint x="783.5" y="525" as="sourcePoint" />
            <mxPoint x="903.5" y="525" as="targetPoint" />
          </mxGeometry>
        </mxCell>
        <mxCell id="CEYnPQlG16EadwTZ8Rgl-59" value="" style="endArrow=none;html=1;" edge="1" parent="1">
          <mxGeometry width="50" height="50" relative="1" as="geometry">
            <mxPoint x="650" y="443" as="sourcePoint" />
            <mxPoint x="1040" y="443" as="targetPoint" />
          </mxGeometry>
        </mxCell>
        <mxCell id="CEYnPQlG16EadwTZ8Rgl-61" value="o" style="text;html=1;strokeColor=none;fillColor=none;align=center;verticalAlign=middle;whiteSpace=wrap;rounded=0;direction=west;" vertex="1" parent="1">
          <mxGeometry x="370" y="333" width="40" height="20" as="geometry" />
        </mxCell>
        <mxCell id="CEYnPQlG16EadwTZ8Rgl-62" value="o" style="text;html=1;strokeColor=none;fillColor=none;align=center;verticalAlign=middle;whiteSpace=wrap;rounded=0;direction=west;" vertex="1" parent="1">
          <mxGeometry x="870" y="333" width="40" height="20" as="geometry" />
        </mxCell>
        <mxCell id="CEYnPQlG16EadwTZ8Rgl-64" value="1.1" style="text;html=1;strokeColor=none;fillColor=none;align=center;verticalAlign=middle;whiteSpace=wrap;rounded=0;direction=west;" vertex="1" parent="1">
          <mxGeometry x="370" y="373" width="40" height="20" as="geometry" />
        </mxCell>
        <mxCell id="CEYnPQlG16EadwTZ8Rgl-65" value="1.2" style="text;html=1;strokeColor=none;fillColor=none;align=center;verticalAlign=middle;whiteSpace=wrap;rounded=0;direction=west;" vertex="1" parent="1">
          <mxGeometry x="867" y="372" width="40" height="20" as="geometry" />
        </mxCell>
        <mxCell id="CEYnPQlG16EadwTZ8Rgl-66" value="1.1.1" style="text;html=1;strokeColor=none;fillColor=none;align=center;verticalAlign=middle;whiteSpace=wrap;rounded=0;direction=west;" vertex="1" parent="1">
          <mxGeometry x="170" y="495" width="40" height="20" as="geometry" />
        </mxCell>
        <mxCell id="CEYnPQlG16EadwTZ8Rgl-67" value="1.1.2&lt;span style=&quot;color: rgba(0 , 0 , 0 , 0) ; font-family: monospace ; font-size: 0px ; white-space: nowrap&quot;&gt;%3CmxGraphModel%3E%3Croot%3E%3CmxCell%20id%3D%220%22%2F%3E%3CmxCell%20id%3D%221%22%20parent%3D%220%22%2F%3E%3CmxCell%20id%3D%222%22%20value%3D%221.1%22%20style%3D%22text%3Bhtml%3D1%3BstrokeColor%3Dnone%3BfillColor%3Dnone%3Balign%3Dcenter%3BverticalAlign%3Dmiddle%3BwhiteSpace%3Dwrap%3Brounded%3D0%3B%22%20vertex%3D%221%22%20parent%3D%221%22%3E%3CmxGeometry%20x%3D%22-190%22%20y%3D%22340%22%20width%3D%2240%22%20height%3D%2220%22%20as%3D%22geometry%22%2F%3E%3C%2FmxCell%3E%3C%2Froot%3E%3C%2FmxGraphModel%3E&lt;/span&gt;" style="text;html=1;strokeColor=none;fillColor=none;align=center;verticalAlign=middle;whiteSpace=wrap;rounded=0;direction=west;" vertex="1" parent="1">
          <mxGeometry x="300" y="495" width="40" height="20" as="geometry" />
        </mxCell>
        <mxCell id="CEYnPQlG16EadwTZ8Rgl-68" value="1.1.3&lt;span style=&quot;color: rgba(0 , 0 , 0 , 0) ; font-family: monospace ; font-size: 0px ; white-space: nowrap&quot;&gt;%3CmxGraphModel%3E%3Croot%3E%3CmxCell%20id%3D%220%22%2F%3E%3CmxCell%20id%3D%221%22%20parent%3D%220%22%2F%3E%3CmxCell%20id%3D%222%22%20value%3D%221.1%22%20style%3D%22text%3Bhtml%3D1%3BstrokeColor%3Dnone%3BfillColor%3Dnone%3Balign%3Dcenter%3BverticalAlign%3Dmiddle%3BwhiteSpace%3Dwrap%3Brounded%3D0%3B%22%20vertex%3D%221%22%20parent%3D%221%22%3E%3CmxGeometry%20x%3D%22-190%22%20y%3D%22340%22%20width%3D%2240%22%20height%3D%2220%22%20as%3D%22geometry%22%2F%3E%3C%2FmxCell%3E%3C%2Froot%3E%3C%2FmxGraphModel%33&lt;/span&gt;" style="text;html=1;strokeColor=none;fillColor=none;align=center;verticalAlign=middle;whiteSpace=wrap;rounded=0;direction=west;" vertex="1" parent="1">
          <mxGeometry x="433.5" y="495" width="40" height="20" as="geometry" />
        </mxCell>
        <mxCell id="CEYnPQlG16EadwTZ8Rgl-69" value="1.1.4&lt;span style=&quot;color: rgba(0 , 0 , 0 , 0) ; font-family: monospace ; font-size: 0px ; white-space: nowrap&quot;&gt;%3CmxGraphModel%3E%3Croot%3E%3CmxCell%20id%3D%220%22%2F%3E%3CmxCell%20id%3D%221%22%20parent%3D%220%22%2F%3E%3CmxCell%20id%3D%222%22%20value%3D%221.1%22%20style%3D%22text%3Bhtml%3D1%3BstrokeColor%3Dnone%3BfillColor%3Dnone%3Balign%3Dcenter%3BverticalAlign%3Dmiddle%3BwhiteSpace%3Dwrap%3Brounded%3D0%3B%22%20vertex%3D%221%22%20parent%3D%221%22%3E%3CmxGeometry%20x%3D%22-190%22%20y%3D%22340%22%20width%3D%2240%22%20height%3D%2220%22%20as%3D%22geometry%22%2F%3E%3C%2FmxCell%3E%3C%2Froot%3E%3C%2FmxGraphModel%33&lt;/span&gt;" style="text;html=1;strokeColor=none;fillColor=none;align=center;verticalAlign=middle;whiteSpace=wrap;rounded=0;direction=west;" vertex="1" parent="1">
          <mxGeometry x="570" y="495" width="40" height="20" as="geometry" />
        </mxCell>
        <mxCell id="CEYnPQlG16EadwTZ8Rgl-70" value="1.2.1" style="text;html=1;strokeColor=none;fillColor=none;align=center;verticalAlign=middle;whiteSpace=wrap;rounded=0;direction=west;" vertex="1" parent="1">
          <mxGeometry x="730" y="495" width="40" height="20" as="geometry" />
        </mxCell>
        <mxCell id="CEYnPQlG16EadwTZ8Rgl-71" value="1.2.2&lt;span style=&quot;color: rgba(0 , 0 , 0 , 0) ; font-family: monospace ; font-size: 0px ; white-space: nowrap&quot;&gt;%3CmxGraphModel%3E%3Croot%3E%3CmxCell%20id%3D%220%22%2F%3E%3CmxCell%20id%3D%221%22%20parent%3D%220%22%2F%3E%3CmxCell%20id%3D%222%22%20value%3D%221.1%22%20style%3D%22text%3Bhtml%3D1%3BstrokeColor%3Dnone%3BfillColor%3Dnone%3Balign%3Dcenter%3BverticalAlign%3Dmiddle%3BwhiteSpace%3Dwrap%3Brounded%3D0%3B%22%20vertex%3D%221%22%20parent%3D%221%22%3E%3CmxGeometry%20x%3D%22-190%22%20y%3D%22340%22%20width%3D%2240%22%20height%3D%2220%22%20as%3D%22geometry%22%2F%3E%3C%2FmxCell%3E%3C%2Froot%3E%3C%2FmxGraphModel%3E&lt;/span&gt;" style="text;html=1;strokeColor=none;fillColor=none;align=center;verticalAlign=middle;whiteSpace=wrap;rounded=0;direction=west;" vertex="1" parent="1">
          <mxGeometry x="863.5" y="495" width="40" height="20" as="geometry" />
        </mxCell>
        <mxCell id="CEYnPQlG16EadwTZ8Rgl-72" value="1.2.3&lt;span style=&quot;color: rgba(0 , 0 , 0 , 0) ; font-family: monospace ; font-size: 0px ; white-space: nowrap&quot;&gt;%3CmxGraphModel%3E%3Croot%3E%3CmxCell%20id%3D%220%22%2F%3E%3CmxCell%20id%3D%221%22%20parent%3D%220%22%2F%3E%3CmxCell%20id%3D%222%22%20value%3D%221.1%22%20style%3D%22text%3Bhtml%3D1%3BstrokeColor%3Dnone%3BfillColor%3Dnone%3Balign%3Dcenter%3BverticalAlign%3Dmiddle%3BwhiteSpace%3Dwrap%3Brounded%3D0%3B%22%20vertex%3D%221%22%20parent%3D%221%22%3E%3CmxGeometry%20x%3D%22-190%22%20y%3D%22340%22%20width%3D%2240%22%20height%3D%2220%22%20as%3D%22geometry%22%2F%3E%3C%2FmxCell%3E%3C%2Froot%3E%3C%2FmxGraphModel%33&lt;/span&gt;" style="text;html=1;strokeColor=none;fillColor=none;align=center;verticalAlign=middle;whiteSpace=wrap;rounded=0;direction=west;" vertex="1" parent="1">
          <mxGeometry x="1000" y="495" width="40" height="20" as="geometry" />
        </mxCell>
        <mxCell id="CEYnPQlG16EadwTZ8Rgl-74" value="1.1.4.1&lt;span style=&quot;color: rgba(0 , 0 , 0 , 0) ; font-family: monospace ; font-size: 0px ; white-space: nowrap&quot;&gt;%3CmxGraphModel%3E%3Croot%3E%3CmxCell%20id%3D%220%22%2F%3E%3CmxCell%20id%3D%221%22%20parent%3D%220%22%2F%3E%3CmxCell%20id%3D%222%22%20value%3D%221.1%22%20style%3D%22text%3Bhtml%3D1%3BstrokeColor%3Dnone%3BfillColor%3Dnone%3Balign%3Dcenter%3BverticalAlign%3Dmiddle%3BwhiteSpace%3Dwrap%3Brounded%3D0%3B%22%20vertex%3D%221%22%20parent%3D%221%22%3E%3CmxGeometry%20x%3D%22-190%22%20y%3D%22340%22%20width%3D%2240%22%20height%3D%2220%22%20as%3D%22geometry%22%2F%3E%3C%2FmxCell%3E%3C%2Froot%3E%3C%2FmxGraphModel%33&lt;/span&gt;" style="text;html=1;strokeColor=none;fillColor=none;align=center;verticalAlign=middle;whiteSpace=wrap;rounded=0;direction=west;" vertex="1" parent="1">
          <mxGeometry x="513.5" y="595" width="40" height="20" as="geometry" />
        </mxCell>
        <mxCell id="CEYnPQlG16EadwTZ8Rgl-75" value="1.1.4.2&lt;span style=&quot;color: rgba(0 , 0 , 0 , 0) ; font-family: monospace ; font-size: 0px ; white-space: nowrap&quot;&gt;%3CmxGraphModel%3E%3Croot%3E%3CmxCell%20id%3D%220%22%2F%3E%3CmxCell%20id%3D%221%22%20parent%3D%220%22%2F%3E%3CmxCell%20id%3D%222%22%20value%3D%221.1%22%20style%3D%22text%3Bhtml%3D1%3BstrokeColor%3Dnone%3BfillColor%3Dnone%3Balign%3Dcenter%3BverticalAlign%3Dmiddle%3BwhiteSpace%3Dwrap%3Brounded%3D0%3B%22%20vertex%3D%221%22%20parent%3D%221%22%3E%3CmxGeometry%20x%3D%22-190%22%20y%3D%22340%22%20width%3D%2240%22%20height%3D%2220%22%20as%3D%22geometry%22%2F%3E%3C%2FmxCell%3E%3C%2Froot%3E%3C%2FmxGraphModel%33&lt;/span&gt;" style="text;html=1;strokeColor=none;fillColor=none;align=center;verticalAlign=middle;whiteSpace=wrap;rounded=0;direction=west;" vertex="1" parent="1">
          <mxGeometry x="643.5" y="595" width="40" height="20" as="geometry" />
        </mxCell>
        <mxCell id="CEYnPQlG16EadwTZ8Rgl-82" value="Buscar opción de reservar" style="rounded=0;whiteSpace=wrap;html=1;direction=west;" vertex="1" parent="1">
          <mxGeometry x="720" y="213" width="120" height="60" as="geometry" />
        </mxCell>
        <mxCell id="CEYnPQlG16EadwTZ8Rgl-83" value="Hacer clic en la opción de reservar&lt;span style=&quot;color: rgba(0 , 0 , 0 , 0) ; font-family: monospace ; font-size: 0px ; white-space: nowrap&quot;&gt;%3CmxGraphModel%3E%3Croot%3E%3CmxCell%20id%3D%220%22%2F%3E%3CmxCell%20id%3D%221%22%20parent%3D%220%22%2F%3E%3CmxCell%20id%3D%222%22%20value%3D%22Buscar%20opci%C3%B3n%20de%20reservar%22%20style%3D%22rounded%3D0%3BwhiteSpace%3Dwrap%3Bhtml%3D1%3B%22%20vertex%3D%221%22%20parent%3D%221%22%3E%3CmxGeometry%20x%3D%22130%22%20y%3D%22180%22%20width%3D%22120%22%20height%3D%2260%22%20as%3D%22geometry%22%2F%3E%3C%2FmxCell%3E%3C%2Froot%3E%3C%2FmxGraphModel%3E&lt;/span&gt;" style="rounded=0;whiteSpace=wrap;html=1;direction=west;" vertex="1" parent="1">
          <mxGeometry x="900" y="213" width="120" height="60" as="geometry" />
        </mxCell>
        <mxCell id="CEYnPQlG16EadwTZ8Rgl-86" style="edgeStyle=none;orthogonalLoop=1;jettySize=auto;html=1;endArrow=none;" edge="1" parent="1" source="CEYnPQlG16EadwTZ8Rgl-84">
          <mxGeometry relative="1" as="geometry">
            <mxPoint x="1520" y="322" as="targetPoint" />
          </mxGeometry>
        </mxCell>
        <mxCell id="CEYnPQlG16EadwTZ8Rgl-84" value="Elegir fecha" style="rounded=0;whiteSpace=wrap;html=1;direction=west;" vertex="1" parent="1">
          <mxGeometry x="1460" y="212" width="120" height="60" as="geometry" />
        </mxCell>
        <mxCell id="CEYnPQlG16EadwTZ8Rgl-87" value="" style="endArrow=none;html=1;" edge="1" parent="1">
          <mxGeometry width="50" height="50" relative="1" as="geometry">
            <mxPoint x="1390" y="322" as="sourcePoint" />
            <mxPoint x="1650" y="322" as="targetPoint" />
          </mxGeometry>
        </mxCell>
        <mxCell id="CEYnPQlG16EadwTZ8Rgl-88" value="Introducir fecha de entrada" style="rounded=0;whiteSpace=wrap;html=1;direction=west;" vertex="1" parent="1">
          <mxGeometry x="1390" y="332" width="120" height="60" as="geometry" />
        </mxCell>
        <mxCell id="CEYnPQlG16EadwTZ8Rgl-89" value="Introducir fecha de salida" style="rounded=0;whiteSpace=wrap;html=1;direction=west;" vertex="1" parent="1">
          <mxGeometry x="1530" y="332" width="120" height="60" as="geometry" />
        </mxCell>
        <mxCell id="CEYnPQlG16EadwTZ8Rgl-90" value="" style="endArrow=none;html=1;" edge="1" parent="1">
          <mxGeometry width="50" height="50" relative="1" as="geometry">
            <mxPoint x="1390" y="402" as="sourcePoint" />
            <mxPoint x="1510" y="402" as="targetPoint" />
          </mxGeometry>
        </mxCell>
        <mxCell id="CEYnPQlG16EadwTZ8Rgl-91" value="" style="endArrow=none;html=1;" edge="1" parent="1">
          <mxGeometry width="50" height="50" relative="1" as="geometry">
            <mxPoint x="1530" y="402" as="sourcePoint" />
            <mxPoint x="1650" y="402" as="targetPoint" />
          </mxGeometry>
        </mxCell>
        <mxCell id="CEYnPQlG16EadwTZ8Rgl-92" style="edgeStyle=none;orthogonalLoop=1;jettySize=auto;html=1;endArrow=none;" edge="1" parent="1" source="CEYnPQlG16EadwTZ8Rgl-93">
          <mxGeometry relative="1" as="geometry">
            <mxPoint x="1820" y="322" as="targetPoint" />
          </mxGeometry>
        </mxCell>
        <mxCell id="CEYnPQlG16EadwTZ8Rgl-93" value="Elegir habitación/es" style="rounded=0;whiteSpace=wrap;html=1;direction=west;" vertex="1" parent="1">
          <mxGeometry x="1760" y="212" width="120" height="60" as="geometry" />
        </mxCell>
        <mxCell id="CEYnPQlG16EadwTZ8Rgl-94" value="" style="endArrow=none;html=1;" edge="1" parent="1">
          <mxGeometry width="50" height="50" relative="1" as="geometry">
            <mxPoint x="1690" y="322" as="sourcePoint" />
            <mxPoint x="1950" y="322" as="targetPoint" />
          </mxGeometry>
        </mxCell>
        <mxCell id="CEYnPQlG16EadwTZ8Rgl-95" value="Introducir número de habitaciones" style="rounded=0;whiteSpace=wrap;html=1;direction=west;" vertex="1" parent="1">
          <mxGeometry x="1690" y="332" width="120" height="60" as="geometry" />
        </mxCell>
        <mxCell id="CEYnPQlG16EadwTZ8Rgl-96" value="Introducir tipo de habitación" style="rounded=0;whiteSpace=wrap;html=1;direction=west;" vertex="1" parent="1">
          <mxGeometry x="1830" y="332" width="120" height="60" as="geometry" />
        </mxCell>
        <mxCell id="CEYnPQlG16EadwTZ8Rgl-97" value="" style="endArrow=none;html=1;" edge="1" parent="1">
          <mxGeometry width="50" height="50" relative="1" as="geometry">
            <mxPoint x="1690" y="402" as="sourcePoint" />
            <mxPoint x="1810" y="402" as="targetPoint" />
          </mxGeometry>
        </mxCell>
        <mxCell id="CEYnPQlG16EadwTZ8Rgl-98" value="" style="endArrow=none;html=1;" edge="1" parent="1">
          <mxGeometry width="50" height="50" relative="1" as="geometry">
            <mxPoint x="1830" y="402" as="sourcePoint" />
            <mxPoint x="1950" y="402" as="targetPoint" />
          </mxGeometry>
        </mxCell>
        <mxCell id="CEYnPQlG16EadwTZ8Rgl-99" value="" style="endArrow=none;html=1;" edge="1" parent="1">
          <mxGeometry width="50" height="50" relative="1" as="geometry">
            <mxPoint x="563.5" y="625" as="sourcePoint" />
            <mxPoint x="683.5" y="625" as="targetPoint" />
          </mxGeometry>
        </mxCell>
        <mxCell id="CEYnPQlG16EadwTZ8Rgl-100" value="Buscar página" style="rounded=0;whiteSpace=wrap;html=1;direction=west;" vertex="1" parent="1">
          <mxGeometry x="860" y="555" width="120" height="60" as="geometry" />
        </mxCell>
        <mxCell id="CEYnPQlG16EadwTZ8Rgl-101" value="Acceder a la página" style="rounded=0;whiteSpace=wrap;html=1;direction=west;" vertex="1" parent="1">
          <mxGeometry x="990" y="555" width="120" height="60" as="geometry" />
        </mxCell>
        <mxCell id="CEYnPQlG16EadwTZ8Rgl-102" value="" style="endArrow=none;html=1;" edge="1" parent="1">
          <mxGeometry width="50" height="50" relative="1" as="geometry">
            <mxPoint x="860" y="625" as="sourcePoint" />
            <mxPoint x="980" y="625" as="targetPoint" />
          </mxGeometry>
        </mxCell>
        <mxCell id="CEYnPQlG16EadwTZ8Rgl-103" value="1.2.3.1&lt;span style=&quot;color: rgba(0 , 0 , 0 , 0) ; font-family: monospace ; font-size: 0px ; white-space: nowrap&quot;&gt;%3CmxGraphModel%3E%3Croot%3E%3CmxCell%20id%3D%220%22%2F%3E%3CmxCell%20id%3D%221%22%20parent%3D%220%22%2F%3E%3CmxCell%20id%3D%222%22%20value%3D%221.1%22%20style%3D%22text%3Bhtml%3D1%3BstrokeColor%3Dnone%3BfillColor%3Dnone%3Balign%3Dcenter%3BverticalAlign%3Dmiddle%3BwhiteSpace%3Dwrap%3Brounded%3D0%3B%22%20vertex%3D%221%22%20parent%3D%221%22%3E%3CmxGeometry%20x%3D%22-190%22%20y%3D%22340%22%20width%3D%2240%22%20height%3D%2220%22%20as%3D%22geometry%22%2F%3E%3C%2FmxCell%3E%3C%2Froot%3E%3C%2FmxGraphModel%33&lt;/span&gt;" style="text;html=1;strokeColor=none;fillColor=none;align=center;verticalAlign=middle;whiteSpace=wrap;rounded=0;direction=west;" vertex="1" parent="1">
          <mxGeometry x="940" y="595" width="40" height="20" as="geometry" />
        </mxCell>
        <mxCell id="CEYnPQlG16EadwTZ8Rgl-104" value="1.2.3.2&lt;span style=&quot;color: rgba(0 , 0 , 0 , 0) ; font-family: monospace ; font-size: 0px ; white-space: nowrap&quot;&gt;%3CmxGraphModel%3E%3Croot%3E%3CmxCell%20id%3D%220%22%2F%3E%3CmxCell%20id%3D%221%22%20parent%3D%220%22%2F%3E%3CmxCell%20id%3D%222%22%20value%3D%221.1%22%20style%3D%22text%3Bhtml%3D1%3BstrokeColor%3Dnone%3BfillColor%3Dnone%3Balign%3Dcenter%3BverticalAlign%3Dmiddle%3BwhiteSpace%3Dwrap%3Brounded%3D0%3B%22%20vertex%3D%221%22%20parent%3D%221%22%3E%3CmxGeometry%20x%3D%22-190%22%20y%3D%22340%22%20width%3D%2240%22%20height%3D%2220%22%20as%3D%22geometry%22%2F%3E%3C%2FmxCell%3E%3C%2Froot%3E%3C%2FmxGraphModel%33&lt;/span&gt;" style="text;html=1;strokeColor=none;fillColor=none;align=center;verticalAlign=middle;whiteSpace=wrap;rounded=0;direction=west;" vertex="1" parent="1">
          <mxGeometry x="1070" y="595" width="40" height="20" as="geometry" />
        </mxCell>
        <mxCell id="CEYnPQlG16EadwTZ8Rgl-105" value="" style="endArrow=none;html=1;" edge="1" parent="1">
          <mxGeometry width="50" height="50" relative="1" as="geometry">
            <mxPoint x="990" y="625" as="sourcePoint" />
            <mxPoint x="1110.0000000000002" y="625" as="targetPoint" />
          </mxGeometry>
        </mxCell>
        <mxCell id="CEYnPQlG16EadwTZ8Rgl-106" style="edgeStyle=none;orthogonalLoop=1;jettySize=auto;html=1;endArrow=none;" edge="1" parent="1" source="CEYnPQlG16EadwTZ8Rgl-107">
          <mxGeometry relative="1" as="geometry">
            <mxPoint x="2120" y="322" as="targetPoint" />
          </mxGeometry>
        </mxCell>
        <mxCell id="CEYnPQlG16EadwTZ8Rgl-107" value="Pagar" style="rounded=0;whiteSpace=wrap;html=1;direction=west;" vertex="1" parent="1">
          <mxGeometry x="2060" y="212" width="120" height="60" as="geometry" />
        </mxCell>
        <mxCell id="CEYnPQlG16EadwTZ8Rgl-108" value="" style="endArrow=none;html=1;" edge="1" parent="1">
          <mxGeometry width="50" height="50" relative="1" as="geometry">
            <mxPoint x="1990" y="322" as="sourcePoint" />
            <mxPoint x="2250" y="322" as="targetPoint" />
          </mxGeometry>
        </mxCell>
        <mxCell id="CEYnPQlG16EadwTZ8Rgl-109" value="Con tarjeta" style="rounded=0;whiteSpace=wrap;html=1;direction=west;" vertex="1" parent="1">
          <mxGeometry x="1990" y="332" width="120" height="60" as="geometry" />
        </mxCell>
        <mxCell id="CEYnPQlG16EadwTZ8Rgl-110" value="Con PayPal" style="rounded=0;whiteSpace=wrap;html=1;direction=west;" vertex="1" parent="1">
          <mxGeometry x="2130" y="332" width="120" height="60" as="geometry" />
        </mxCell>
        <mxCell id="CEYnPQlG16EadwTZ8Rgl-111" value="" style="endArrow=none;html=1;" edge="1" parent="1">
          <mxGeometry width="50" height="50" relative="1" as="geometry">
            <mxPoint x="1990" y="402" as="sourcePoint" />
            <mxPoint x="2110" y="402" as="targetPoint" />
          </mxGeometry>
        </mxCell>
        <mxCell id="CEYnPQlG16EadwTZ8Rgl-112" value="" style="endArrow=none;html=1;" edge="1" parent="1">
          <mxGeometry width="50" height="50" relative="1" as="geometry">
            <mxPoint x="2130" y="402" as="sourcePoint" />
            <mxPoint x="2250" y="402" as="targetPoint" />
          </mxGeometry>
        </mxCell>
        <mxCell id="CEYnPQlG16EadwTZ8Rgl-113" value="o" style="text;html=1;strokeColor=none;fillColor=none;align=center;verticalAlign=middle;whiteSpace=wrap;rounded=0;direction=west;" vertex="1" parent="1">
          <mxGeometry x="2080" y="332" width="40" height="20" as="geometry" />
        </mxCell>
        <mxCell id="CEYnPQlG16EadwTZ8Rgl-114" value="o" style="text;html=1;strokeColor=none;fillColor=none;align=center;verticalAlign=middle;whiteSpace=wrap;rounded=0;direction=west;" vertex="1" parent="1">
          <mxGeometry x="2220" y="332" width="40" height="20" as="geometry" />
        </mxCell>
        <mxCell id="CEYnPQlG16EadwTZ8Rgl-115" value="Imprimir comprobante" style="rounded=0;whiteSpace=wrap;html=1;direction=west;" vertex="1" parent="1">
          <mxGeometry x="2220" y="212" width="130" height="60" as="geometry" />
        </mxCell>
        <mxCell id="CEYnPQlG16EadwTZ8Rgl-116" value="2" style="text;html=1;strokeColor=none;fillColor=none;align=center;verticalAlign=middle;whiteSpace=wrap;rounded=0;direction=west;" vertex="1" parent="1">
          <mxGeometry x="810" y="253" width="40" height="20" as="geometry" />
        </mxCell>
        <mxCell id="CEYnPQlG16EadwTZ8Rgl-118" value="3&lt;span style=&quot;color: rgba(0 , 0 , 0 , 0) ; font-family: monospace ; font-size: 0px ; white-space: nowrap&quot;&gt;%3CmxGraphModel%3E%3Croot%3E%3CmxCell%20id%3D%220%22%2F%3E%3CmxCell%20id%3D%221%22%20parent%3D%220%22%2F%3E%3CmxCell%20id%3D%222%22%20value%3D%222%22%20style%3D%22text%3Bhtml%3D1%3BstrokeColor%3Dnone%3BfillColor%3Dnone%3Balign%3Dcenter%3BverticalAlign%3Dmiddle%3BwhiteSpace%3Dwrap%3Brounded%3D0%3B%22%20vertex%3D%221%22%20parent%3D%221%22%3E%3CmxGeometry%20x%3D%22180%22%20y%3D%22222%22%20width%3D%2240%22%20height%3D%2220%22%20as%3D%22geometry%22%2F%3E%3C%2FmxCell%3E%3C%2Froot%3E%3C%2FmxGraphModel%3E&lt;/span&gt;" style="text;html=1;strokeColor=none;fillColor=none;align=center;verticalAlign=middle;whiteSpace=wrap;rounded=0;direction=west;" vertex="1" parent="1">
          <mxGeometry x="980" y="253" width="40" height="20" as="geometry" />
        </mxCell>
        <mxCell id="CEYnPQlG16EadwTZ8Rgl-129" value="" style="endArrow=none;html=1;" edge="1" parent="1">
          <mxGeometry width="50" height="50" relative="1" as="geometry">
            <mxPoint x="720" y="281" as="sourcePoint" />
            <mxPoint x="840" y="281" as="targetPoint" />
          </mxGeometry>
        </mxCell>
        <mxCell id="CEYnPQlG16EadwTZ8Rgl-130" value="" style="endArrow=none;html=1;" edge="1" parent="1">
          <mxGeometry width="50" height="50" relative="1" as="geometry">
            <mxPoint x="900" y="281" as="sourcePoint" />
            <mxPoint x="1020" y="281" as="targetPoint" />
          </mxGeometry>
        </mxCell>
        <mxCell id="CEYnPQlG16EadwTZ8Rgl-131" value="" style="endArrow=none;html=1;" edge="1" parent="1">
          <mxGeometry width="50" height="50" relative="1" as="geometry">
            <mxPoint x="2220" y="280" as="sourcePoint" />
            <mxPoint x="2349.9999999999995" y="280" as="targetPoint" />
          </mxGeometry>
        </mxCell>
        <mxCell id="CEYnPQlG16EadwTZ8Rgl-136" style="edgeStyle=none;orthogonalLoop=1;jettySize=auto;html=1;endArrow=none;" edge="1" parent="1" source="CEYnPQlG16EadwTZ8Rgl-137">
          <mxGeometry relative="1" as="geometry">
            <mxPoint x="1150" y="322" as="targetPoint" />
          </mxGeometry>
        </mxCell>
        <mxCell id="CEYnPQlG16EadwTZ8Rgl-137" value="Registrarse" style="rounded=0;whiteSpace=wrap;html=1;direction=west;" vertex="1" parent="1">
          <mxGeometry x="1090" y="212" width="120" height="60" as="geometry" />
        </mxCell>
        <mxCell id="CEYnPQlG16EadwTZ8Rgl-138" value="" style="endArrow=none;html=1;" edge="1" parent="1">
          <mxGeometry width="50" height="50" relative="1" as="geometry">
            <mxPoint x="950" y="322" as="sourcePoint" />
            <mxPoint x="1350" y="322" as="targetPoint" />
          </mxGeometry>
        </mxCell>
        <mxCell id="CEYnPQlG16EadwTZ8Rgl-139" value="Introducir correo electrónico" style="rounded=0;whiteSpace=wrap;html=1;direction=west;" vertex="1" parent="1">
          <mxGeometry x="950" y="332" width="120" height="60" as="geometry" />
        </mxCell>
        <mxCell id="CEYnPQlG16EadwTZ8Rgl-140" value="Introducir nombre de usuario" style="rounded=0;whiteSpace=wrap;html=1;direction=west;" vertex="1" parent="1">
          <mxGeometry x="1090" y="332" width="120" height="60" as="geometry" />
        </mxCell>
        <mxCell id="CEYnPQlG16EadwTZ8Rgl-141" value="" style="endArrow=none;html=1;" edge="1" parent="1">
          <mxGeometry width="50" height="50" relative="1" as="geometry">
            <mxPoint x="950" y="402" as="sourcePoint" />
            <mxPoint x="1070" y="402" as="targetPoint" />
          </mxGeometry>
        </mxCell>
        <mxCell id="CEYnPQlG16EadwTZ8Rgl-142" value="" style="endArrow=none;html=1;" edge="1" parent="1">
          <mxGeometry width="50" height="50" relative="1" as="geometry">
            <mxPoint x="1090" y="402" as="sourcePoint" />
            <mxPoint x="1210" y="402" as="targetPoint" />
          </mxGeometry>
        </mxCell>
        <mxCell id="CEYnPQlG16EadwTZ8Rgl-144" value="Introducir contraseña" style="rounded=0;whiteSpace=wrap;html=1;direction=west;" vertex="1" parent="1">
          <mxGeometry x="1230" y="331" width="120" height="60" as="geometry" />
        </mxCell>
        <mxCell id="CEYnPQlG16EadwTZ8Rgl-145" value="" style="endArrow=none;html=1;" edge="1" parent="1">
          <mxGeometry width="50" height="50" relative="1" as="geometry">
            <mxPoint x="1230" y="401" as="sourcePoint" />
            <mxPoint x="1350" y="401" as="targetPoint" />
          </mxGeometry>
        </mxCell>
        <mxCell id="CEYnPQlG16EadwTZ8Rgl-146" value="4" style="text;html=1;strokeColor=none;fillColor=none;align=center;verticalAlign=middle;whiteSpace=wrap;rounded=0;direction=west;" vertex="1" parent="1">
          <mxGeometry x="1180" y="252" width="40" height="20" as="geometry" />
        </mxCell>
        <mxCell id="CEYnPQlG16EadwTZ8Rgl-147" value="6" style="text;html=1;strokeColor=none;fillColor=none;align=center;verticalAlign=middle;whiteSpace=wrap;rounded=0;direction=west;" vertex="1" parent="1">
          <mxGeometry x="1550" y="252" width="40" height="20" as="geometry" />
        </mxCell>
        <mxCell id="CEYnPQlG16EadwTZ8Rgl-148" value="7" style="text;html=1;strokeColor=none;fillColor=none;align=center;verticalAlign=middle;whiteSpace=wrap;rounded=0;direction=west;" vertex="1" parent="1">
          <mxGeometry x="1850" y="252" width="40" height="20" as="geometry" />
        </mxCell>
        <mxCell id="CEYnPQlG16EadwTZ8Rgl-149" value="8" style="text;html=1;strokeColor=none;fillColor=none;align=center;verticalAlign=middle;whiteSpace=wrap;rounded=0;direction=west;" vertex="1" parent="1">
          <mxGeometry x="2150" y="252" width="40" height="20" as="geometry" />
        </mxCell>
        <mxCell id="CEYnPQlG16EadwTZ8Rgl-150" value="9" style="text;html=1;strokeColor=none;fillColor=none;align=center;verticalAlign=middle;whiteSpace=wrap;rounded=0;direction=west;" vertex="1" parent="1">
          <mxGeometry x="2320" y="252" width="40" height="20" as="geometry" />
        </mxCell>
        <mxCell id="CEYnPQlG16EadwTZ8Rgl-151" value="4.1" style="text;html=1;strokeColor=none;fillColor=none;align=center;verticalAlign=middle;whiteSpace=wrap;rounded=0;direction=west;" vertex="1" parent="1">
          <mxGeometry x="1030" y="371" width="40" height="20" as="geometry" />
        </mxCell>
        <mxCell id="CEYnPQlG16EadwTZ8Rgl-152" value="4.2" style="text;html=1;strokeColor=none;fillColor=none;align=center;verticalAlign=middle;whiteSpace=wrap;rounded=0;direction=west;" vertex="1" parent="1">
          <mxGeometry x="1170" y="371" width="40" height="20" as="geometry" />
        </mxCell>
        <mxCell id="CEYnPQlG16EadwTZ8Rgl-153" value="4.3" style="text;html=1;strokeColor=none;fillColor=none;align=center;verticalAlign=middle;whiteSpace=wrap;rounded=0;direction=west;" vertex="1" parent="1">
          <mxGeometry x="1310" y="372" width="40" height="20" as="geometry" />
        </mxCell>
        <mxCell id="CEYnPQlG16EadwTZ8Rgl-154" value="6.1" style="text;html=1;strokeColor=none;fillColor=none;align=center;verticalAlign=middle;whiteSpace=wrap;rounded=0;direction=west;" vertex="1" parent="1">
          <mxGeometry x="1470" y="373" width="40" height="20" as="geometry" />
        </mxCell>
        <mxCell id="CEYnPQlG16EadwTZ8Rgl-155" value="6.2" style="text;html=1;strokeColor=none;fillColor=none;align=center;verticalAlign=middle;whiteSpace=wrap;rounded=0;direction=west;" vertex="1" parent="1">
          <mxGeometry x="1610" y="373" width="40" height="20" as="geometry" />
        </mxCell>
        <mxCell id="CEYnPQlG16EadwTZ8Rgl-156" value="7.1" style="text;html=1;strokeColor=none;fillColor=none;align=center;verticalAlign=middle;whiteSpace=wrap;rounded=0;direction=west;" vertex="1" parent="1">
          <mxGeometry x="1770" y="373" width="40" height="20" as="geometry" />
        </mxCell>
        <mxCell id="CEYnPQlG16EadwTZ8Rgl-157" value="7.2" style="text;html=1;strokeColor=none;fillColor=none;align=center;verticalAlign=middle;whiteSpace=wrap;rounded=0;direction=west;" vertex="1" parent="1">
          <mxGeometry x="1910" y="372" width="40" height="20" as="geometry" />
        </mxCell>
        <mxCell id="CEYnPQlG16EadwTZ8Rgl-158" value="8.1" style="text;html=1;strokeColor=none;fillColor=none;align=center;verticalAlign=middle;whiteSpace=wrap;rounded=0;direction=west;" vertex="1" parent="1">
          <mxGeometry x="2070" y="372" width="40" height="20" as="geometry" />
        </mxCell>
        <mxCell id="CEYnPQlG16EadwTZ8Rgl-159" value="8.2" style="text;html=1;strokeColor=none;fillColor=none;align=center;verticalAlign=middle;whiteSpace=wrap;rounded=0;direction=west;" vertex="1" parent="1">
          <mxGeometry x="2210" y="372" width="40" height="20" as="geometry" />
        </mxCell>
        <mxCell id="CEYnPQlG16EadwTZ8Rgl-161" value="&lt;font style=&quot;font-size: 11px;&quot;&gt;Plan 0 :&lt;br style=&quot;font-size: 11px;&quot;&gt;1, 2, 3,&lt;br style=&quot;font-size: 11px;&quot;&gt;Si no tenemos cuenta hacemos 4, sino no&lt;br style=&quot;font-size: 11px;&quot;&gt;5, 6, 7, 8&lt;br style=&quot;font-size: 11px;&quot;&gt;&lt;/font&gt;&lt;div style=&quot;font-size: 11px;&quot;&gt;&lt;font style=&quot;font-size: 11px;&quot;&gt;Si queremos validarnos al llegar al hotel con el comprobante en papel, 9&lt;/font&gt;&lt;/div&gt;" style="text;html=1;strokeColor=none;fillColor=none;align=left;verticalAlign=middle;whiteSpace=wrap;rounded=0;fontSize=11;direction=west;" vertex="1" parent="1">
          <mxGeometry x="1300" y="120" width="360" height="70" as="geometry" />
        </mxCell>
        <mxCell id="CEYnPQlG16EadwTZ8Rgl-162" value="Entrar en nuestra cuenta" style="rounded=0;whiteSpace=wrap;html=1;direction=west;" vertex="1" parent="1">
          <mxGeometry x="1270" y="213" width="120" height="60" as="geometry" />
        </mxCell>
        <mxCell id="CEYnPQlG16EadwTZ8Rgl-163" value="5" style="text;html=1;strokeColor=none;fillColor=none;align=center;verticalAlign=middle;whiteSpace=wrap;rounded=0;direction=west;" vertex="1" parent="1">
          <mxGeometry x="1350" y="253" width="40" height="20" as="geometry" />
        </mxCell>
        <mxCell id="CEYnPQlG16EadwTZ8Rgl-164" value="" style="endArrow=none;html=1;" edge="1" parent="1">
          <mxGeometry width="50" height="50" relative="1" as="geometry">
            <mxPoint x="1270" y="280" as="sourcePoint" />
            <mxPoint x="1390" y="280" as="targetPoint" />
          </mxGeometry>
        </mxCell>
        <mxCell id="CEYnPQlG16EadwTZ8Rgl-167" value="&lt;font style=&quot;font-size: 11px;&quot;&gt;Plan 8 :&lt;br style=&quot;font-size: 11px;&quot;&gt;Si queremos pagar con tarjeta, 8.1&lt;br style=&quot;font-size: 11px;&quot;&gt;Si queremos pagar con PayPal 8.2&lt;br style=&quot;font-size: 11px;&quot;&gt;&lt;/font&gt;" style="text;html=1;strokeColor=none;fillColor=none;align=left;verticalAlign=middle;whiteSpace=wrap;rounded=0;fontSize=11;direction=west;" vertex="1" parent="1">
          <mxGeometry x="2130" y="273" width="180" height="40" as="geometry" />
        </mxCell>
        <mxCell id="CEYnPQlG16EadwTZ8Rgl-168" value="&lt;font style=&quot;font-size: 11px;&quot;&gt;Plan 1 :&lt;br style=&quot;font-size: 11px;&quot;&gt;Si queremos acceder desde el ordenador: 1.1&lt;br style=&quot;font-size: 11px;&quot;&gt;Si queremos acceder desde el móvil: 1.2&lt;br style=&quot;font-size: 11px;&quot;&gt;&lt;/font&gt;" style="text;html=1;strokeColor=none;fillColor=none;align=left;verticalAlign=middle;whiteSpace=wrap;rounded=0;fontSize=11;direction=west;" vertex="1" parent="1">
          <mxGeometry x="612.5" y="280" width="227.5" height="40" as="geometry" />
        </mxCell>
        <mxCell id="CEYnPQlG16EadwTZ8Rgl-169" value="&lt;font style=&quot;font-size: 11px;&quot;&gt;Plan 1.1 :&lt;br style=&quot;font-size: 11px;&quot;&gt;Si no estamos con el ordenador: 1.1.1&lt;br style=&quot;font-size: 11px;&quot;&gt;Si el ordenador está apagado: 1.1.2&lt;br style=&quot;font-size: 11px;&quot;&gt;1.1.3, 1.1.4&lt;br style=&quot;font-size: 11px;&quot;&gt;&lt;/font&gt;" style="text;html=1;strokeColor=none;fillColor=none;align=left;verticalAlign=middle;whiteSpace=wrap;rounded=0;fontSize=11;direction=west;" vertex="1" parent="1">
          <mxGeometry x="410" y="371" width="200" height="60" as="geometry" />
        </mxCell>
        <mxCell id="CEYnPQlG16EadwTZ8Rgl-170" value="&lt;font style=&quot;font-size: 11px;&quot;&gt;Plan 1.1 :&lt;br style=&quot;font-size: 11px;&quot;&gt;Si el móvil está apagado: 1.2.1&lt;br style=&quot;font-size: 11px;&quot;&gt;1.2.2, 1.2.3&lt;br style=&quot;font-size: 11px;&quot;&gt;&lt;/font&gt;" style="text;html=1;strokeColor=none;fillColor=none;align=left;verticalAlign=middle;whiteSpace=wrap;rounded=0;fontSize=11;direction=west;" vertex="1" parent="1">
          <mxGeometry x="850" y="390" width="180" height="53" as="geometry" />
        </mxCell>
        <mxCell id="CEYnPQlG16EadwTZ8Rgl-172" style="edgeStyle=none;orthogonalLoop=1;jettySize=auto;html=1;endArrow=none;" edge="1" parent="1">
          <mxGeometry relative="1" as="geometry">
            <mxPoint x="839.3100000000002" y="443" as="targetPoint" />
            <mxPoint x="839.3100000000002" y="393" as="sourcePoint" />
          </mxGeometry>
        </mxCell>
        <mxCell id="CEYnPQlG16EadwTZ8Rgl-173" style="edgeStyle=none;orthogonalLoop=1;jettySize=auto;html=1;endArrow=none;" edge="1" parent="1">
          <mxGeometry relative="1" as="geometry">
            <mxPoint x="339.30999999999995" y="443" as="targetPoint" />
            <mxPoint x="339.30999999999995" y="393" as="sourcePoint" />
          </mxGeometry>
        </mxCell>
        <mxCell id="CEYnPQlG16EadwTZ8Rgl-175" style="edgeStyle=none;orthogonalLoop=1;jettySize=auto;html=1;endArrow=none;exitX=0.5;exitY=0;exitDx=0;exitDy=0;" edge="1" parent="1" source="CEYnPQlG16EadwTZ8Rgl-21">
          <mxGeometry relative="1" as="geometry">
            <mxPoint x="550" y="545" as="targetPoint" />
            <mxPoint x="553" y="520" as="sourcePoint" />
          </mxGeometry>
        </mxCell>
        <mxCell id="CEYnPQlG16EadwTZ8Rgl-176" style="edgeStyle=none;orthogonalLoop=1;jettySize=auto;html=1;endArrow=none;exitX=0.5;exitY=0;exitDx=0;exitDy=0;" edge="1" parent="1">
          <mxGeometry relative="1" as="geometry">
            <mxPoint x="979.31" y="545" as="targetPoint" />
            <mxPoint x="979.31" y="515" as="sourcePoint" />
          </mxGeometry>
        </mxCell>
      </root>
    </mxGraphModel>
  </diagram>
</mxfile>
